<svg width="1200" height="800" viewBox="0 0 1200 800" xmlns="http://www.w3.org/2000/svg">
  <defs>
    <linearGradient id="purpleGradient" x1="0%" y1="0%" x2="100%" y2="100%">
      <stop offset="0%" style="stop-color:#8B5CF6;stop-opacity:0.1" />
      <stop offset="100%" style="stop-color:#3B82F6;stop-opacity:0.05" />
    </linearGradient>
    <linearGradient id="blueGradient" x1="0%" y1="0%" x2="100%" y2="100%">
      <stop offset="0%" style="stop-color:#3B82F6;stop-opacity:0.1" />
      <stop offset="100%" style="stop-color:#8B5CF6;stop-opacity:0.05" />
    </linearGradient>
    <radialGradient id="circleGradient" cx="50%" cy="50%" r="50%">
      <stop offset="0%" style="stop-color:#8B5CF6;stop-opacity:0.3" />
      <stop offset="100%" style="stop-color:#8B5CF6;stop-opacity:0" />
    </radialGradient>
  </defs>
  
  <!-- Background -->
  <rect width="1200" height="800" fill="url(#purpleGradient)"/>
  
  <!-- Large circles -->
  <circle cx="200" cy="150" r="120" fill="url(#circleGradient)" opacity="0.3"/>
  <circle cx="1000" cy="650" r="150" fill="url(#circleGradient)" opacity="0.2"/>
  <circle cx="900" cy="200" r="80" fill="url(#circleGradient)" opacity="0.4"/>
  
  <!-- Geometric shapes -->
  <polygon points="50,400 150,300 250,400 150,500" fill="#8B5CF6" opacity="0.1"/>
  <polygon points="950,300 1050,200 1150,300 1050,400" fill="#3B82F6" opacity="0.1"/>
  
  <!-- Small decorative elements -->
  <circle cx="300" cy="600" r="15" fill="#8B5CF6" opacity="0.2"/>
  <circle cx="800" cy="100" r="20" fill="#3B82F6" opacity="0.2"/>
  <circle cx="1100" cy="500" r="12" fill="#8B5CF6" opacity="0.3"/>
  <circle cx="150" cy="700" r="18" fill="#3B82F6" opacity="0.2"/>
  
  <!-- Connection lines -->
  <line x1="200" y1="150" x2="400" y2="300" stroke="#8B5CF6" stroke-width="2" opacity="0.1"/>
  <line x1="800" y1="200" x2="1000" y2="400" stroke="#3B82F6" stroke-width="2" opacity="0.1"/>
  <line x1="600" y1="500" x2="800" y2="600" stroke="#8B5CF6" stroke-width="2" opacity="0.1"/>
  
  <!-- Floating dots -->
  <circle cx="500" cy="150" r="3" fill="#8B5CF6" opacity="0.4"/>
  <circle cx="700" cy="250" r="3" fill="#3B82F6" opacity="0.4"/>
  <circle cx="400" cy="450" r="3" fill="#8B5CF6" opacity="0.4"/>
  <circle cx="900" cy="550" r="3" fill="#3B82F6" opacity="0.4"/>
  <circle cx="600" cy="700" r="3" fill="#8B5CF6" opacity="0.4"/>
  <circle cx="1100" cy="350" r="3" fill="#3B82F6" opacity="0.4"/>
  
  <!-- Network pattern -->
  <g opacity="0.1">
    <circle cx="200" cy="200" r="2" fill="#8B5CF6"/>
    <circle cx="300" cy="250" r="2" fill="#3B82F6"/>
    <circle cx="400" cy="200" r="2" fill="#8B5CF6"/>
    <circle cx="500" cy="250" r="2" fill="#3B82F6"/>
    <circle cx="600" cy="200" r="2" fill="#8B5CF6"/>
    <circle cx="700" cy="250" r="2" fill="#3B82F6"/>
    <circle cx="800" cy="200" r="2" fill="#8B5CF6"/>
    <circle cx="900" cy="250" r="2" fill="#3B82F6"/>
    <circle cx="1000" cy="200" r="2" fill="#8B5CF6"/>
  </g>
</svg> 