<svg width="1200" height="400" viewBox="0 0 1200 400" xmlns="http://www.w3.org/2000/svg">
  <defs>
    <linearGradient id="bgGradient" x1="0%" y1="0%" x2="100%" y2="100%">
      <stop offset="0%" style="stop-color:#3B82F6;stop-opacity:0.1" />
      <stop offset="50%" style="stop-color:#8B5CF6;stop-opacity:0.1" />
      <stop offset="100%" style="stop-color:#06B6D4;stop-opacity:0.1" />
    </linearGradient>
    <linearGradient id="serverGradient" x1="0%" y1="0%" x2="100%" y2="100%">
      <stop offset="0%" style="stop-color:#3B82F6" />
      <stop offset="100%" style="stop-color:#8B5CF6" />
    </linearGradient>
    <linearGradient id="ssdGradient" x1="0%" y1="0%" x2="100%" y2="100%">
      <stop offset="0%" style="stop-color:#10B981" />
      <stop offset="100%" style="stop-color:#059669" />
    </linearGradient>
  </defs>
  
  <!-- Background -->
  <rect width="1200" height="400" fill="url(#bgGradient)"/>
  
  <!-- Floating servers -->
  <g opacity="0.3">
    <!-- Server 1 -->
    <rect x="100" y="50" width="80" height="120" rx="8" fill="url(#serverGradient)"/>
    <rect x="110" y="70" width="60" height="8" rx="2" fill="white" opacity="0.8"/>
    <rect x="110" y="85" width="40" height="8" rx="2" fill="white" opacity="0.6"/>
    <rect x="110" y="100" width="50" height="8" rx="2" fill="white" opacity="0.7"/>
    <rect x="110" y="115" width="35" height="8" rx="2" fill="white" opacity="0.5"/>
    
    <!-- Server 2 -->
    <rect x="300" y="80" width="80" height="120" rx="8" fill="url(#serverGradient)"/>
    <rect x="310" y="100" width="60" height="8" rx="2" fill="white" opacity="0.8"/>
    <rect x="310" y="115" width="40" height="8" rx="2" fill="white" opacity="0.6"/>
    <rect x="310" y="130" width="50" height="8" rx="2" fill="white" opacity="0.7"/>
    <rect x="310" y="145" width="35" height="8" rx="2" fill="white" opacity="0.5"/>
    
    <!-- Server 3 -->
    <rect x="500" y="60" width="80" height="120" rx="8" fill="url(#serverGradient)"/>
    <rect x="510" y="80" width="60" height="8" rx="2" fill="white" opacity="0.8"/>
    <rect x="510" y="95" width="40" height="8" rx="2" fill="white" opacity="0.6"/>
    <rect x="510" y="110" width="50" height="8" rx="2" fill="white" opacity="0.7"/>
    <rect x="510" y="125" width="35" height="8" rx="2" fill="white" opacity="0.5"/>
    
    <!-- SSD Drives -->
    <rect x="700" y="100" width="60" height="40" rx="4" fill="url(#ssdGradient)"/>
    <rect x="710" y="110" width="40" height="4" rx="2" fill="white" opacity="0.8"/>
    <rect x="710" y="118" width="30" height="4" rx="2" fill="white" opacity="0.6"/>
    <rect x="710" y="126" width="35" height="4" rx="2" fill="white" opacity="0.7"/>
    
    <rect x="800" y="120" width="60" height="40" rx="4" fill="url(#ssdGradient)"/>
    <rect x="810" y="130" width="40" height="4" rx="2" fill="white" opacity="0.8"/>
    <rect x="810" y="138" width="30" height="4" rx="2" fill="white" opacity="0.6"/>
    <rect x="810" y="146" width="35" height="4" rx="2" fill="white" opacity="0.7"/>
    
    <rect x="900" y="90" width="60" height="40" rx="4" fill="url(#ssdGradient)"/>
    <rect x="910" y="100" width="40" height="4" rx="2" fill="white" opacity="0.8"/>
    <rect x="910" y="108" width="30" height="4" rx="2" fill="white" opacity="0.6"/>
    <rect x="910" y="116" width="35" height="4" rx="2" fill="white" opacity="0.7"/>
  </g>
  
  <!-- Connection lines -->
  <g stroke="#3B82F6" stroke-width="2" opacity="0.2">
    <line x1="180" y1="110" x2="300" y2="140"/>
    <line x1="380" y1="140" x2="500" y2="120"/>
    <line x1="580" y1="120" x2="700" y2="120"/>
    <line x1="760" y1="120" x2="800" y2="140"/>
    <line x1="860" y1="140" x2="900" y2="110"/>
  </g>
  
  <!-- Data flow particles -->
  <g opacity="0.4">
    <circle cx="240" cy="125" r="3" fill="#3B82F6">
      <animate attributeName="cx" values="240;300;240" dur="3s" repeatCount="indefinite"/>
    </circle>
    <circle cx="440" cy="130" r="2" fill="#8B5CF6">
      <animate attributeName="cx" values="440;500;440" dur="2.5s" repeatCount="indefinite"/>
    </circle>
    <circle cx="640" cy="120" r="2.5" fill="#06B6D4">
      <animate attributeName="cx" values="640;700;640" dur="2s" repeatCount="indefinite"/>
    </circle>
    <circle cx="780" cy="140" r="2" fill="#10B981">
      <animate attributeName="cx" values="780;800;780" dur="1.5s" repeatCount="indefinite"/>
    </circle>
  </g>
</svg> 