<svg width="400" height="300" viewBox="0 0 400 300" fill="none" xmlns="http://www.w3.org/2000/svg">
  <!-- Background -->
  <rect width="400" height="300" fill="#f8fafc"/>
  
  <!-- Network of People -->
  <circle cx="200" cy="150" r="25" fill="#3b82f6"/>
  <circle cx="200" cy="145" r="8" fill="white"/>
  <rect x="195" y="150" width="10" height="12" fill="white" rx="2"/>
  
  <!-- Connected People -->
  <circle cx="120" cy="100" r="20" fill="#10b981"/>
  <circle cx="120" cy="95" r="6" fill="white"/>
  <rect x="117" y="100" width="6" height="8" fill="white" rx="2"/>
  
  <circle cx="280" cy="100" r="20" fill="#f59e0b"/>
  <circle cx="280" cy="95" r="6" fill="white"/>
  <rect x="277" y="100" width="6" height="8" fill="white" rx="2"/>
  
  <circle cx="120" cy="200" r="20" fill="#ef4444"/>
  <circle cx="120" cy="195" r="6" fill="white"/>
  <rect x="117" y="200" width="6" height="8" fill="white" rx="2"/>
  
  <circle cx="280" cy="200" r="20" fill="#8b5cf6"/>
  <circle cx="280" cy="195" r="6" fill="white"/>
  <rect x="277" y="200" width="6" height="8" fill="white" rx="2"/>
  
  <!-- Connection Lines -->
  <path d="M175 150 L145 100" stroke="#3b82f6" stroke-width="2"/>
  <path d="M225 150 L255 100" stroke="#3b82f6" stroke-width="2"/>
  <path d="M175 150 L145 200" stroke="#3b82f6" stroke-width="2"/>
  <path d="M225 150 L255 200" stroke="#3b82f6" stroke-width="2"/>
  
  <!-- Commission Chart -->
  <rect x="50" y="240" width="300" height="40" fill="#e2e8f0" rx="4"/>
  <rect x="60" y="250" width="60" height="20" fill="#10b981" rx="2"/>
  <rect x="130" y="250" width="80" height="20" fill="#3b82f6" rx="2"/>
  <rect x="220" y="250" width="70" height="20" fill="#f59e0b" rx="2"/>
  <rect x="300" y="250" width="40" height="20" fill="#ef4444" rx="2"/>
  
  <!-- Money Icons -->
  <circle cx="50" cy="50" r="20" fill="#f59e0b"/>
  <text x="50" y="55" text-anchor="middle" fill="white" font-size="16">💰</text>
  
  <circle cx="350" cy="50" r="20" fill="#10b981"/>
  <text x="350" y="55" text-anchor="middle" fill="white" font-size="16">📈</text>
  
  <!-- Commission Labels -->
  <text x="90" y="265" fill="white" font-size="10" text-anchor="middle">Level 1</text>
  <text x="170" y="265" fill="white" font-size="10" text-anchor="middle">Level 2</text>
  <text x="255" y="265" fill="white" font-size="10" text-anchor="middle">Level 3</text>
  <text x="320" y="265" fill="white" font-size="10" text-anchor="middle">Bonus</text>
  
  <!-- Growth Indicators -->
  <path d="M320 80 L340 60 L360 80" stroke="#10b981" stroke-width="2" fill="none"/>
  <path d="M320 80 L340 100 L360 80" stroke="#10b981" stroke-width="2" fill="none"/>
  
  <!-- Success Badges -->
  <circle cx="80" cy="40" r="12" fill="#10b981"/>
  <text x="80" y="45" text-anchor="middle" fill="white" font-size="12">✓</text>
  
  <circle cx="320" cy="40" r="12" fill="#3b82f6"/>
  <text x="320" y="45" text-anchor="middle" fill="white" font-size="12">★</text>
</svg> 