<svg width="400" height="300" viewBox="0 0 400 300" fill="none" xmlns="http://www.w3.org/2000/svg">
  <!-- Background -->
  <rect width="400" height="300" fill="#f8fafc"/>
  
  <!-- Storage Drives -->
  <rect x="80" y="80" width="60" height="40" fill="#1e293b" rx="4"/>
  <rect x="85" y="85" width="50" height="30" fill="#3b82f6" rx="2"/>
  <rect x="90" y="90" width="40" height="8" fill="white" rx="2"/>
  <rect x="90" y="105" width="40" height="8" fill="white" rx="2"/>
  <rect x="90" y="120" width="40" height="8" fill="white" rx="2"/>
  
  <rect x="160" y="80" width="60" height="40" fill="#1e293b" rx="4"/>
  <rect x="165" y="85" width="50" height="30" fill="#8b5cf6" rx="2"/>
  <rect x="170" y="90" width="40" height="8" fill="white" rx="2"/>
  <rect x="170" y="105" width="40" height="8" fill="white" rx="2"/>
  <rect x="170" y="120" width="40" height="8" fill="white" rx="2"/>
  
  <rect x="240" y="80" width="60" height="40" fill="#1e293b" rx="4"/>
  <rect x="245" y="85" width="50" height="30" fill="#06b6d4" rx="2"/>
  <rect x="250" y="90" width="40" height="8" fill="white" rx="2"/>
  <rect x="250" y="105" width="40" height="8" fill="white" rx="2"/>
  <rect x="250" y="120" width="40" height="8" fill="white" rx="2"/>
  
  <rect x="320" y="80" width="60" height="40" fill="#1e293b" rx="4"/>
  <rect x="325" y="85" width="50" height="30" fill="#10b981" rx="2"/>
  <rect x="330" y="90" width="40" height="8" fill="white" rx="2"/>
  <rect x="330" y="105" width="40" height="8" fill="white" rx="2"/>
  <rect x="330" y="120" width="40" height="8" fill="white" rx="2"/>
  
  <!-- RAID Configuration -->
  <rect x="120" y="160" width="160" height="80" fill="#1e293b" rx="8"/>
  <rect x="130" y="170" width="140" height="60" fill="#6366f1" rx="4"/>
  
  <!-- RAID Diagram -->
  <rect x="140" y="180" width="30" height="40" fill="#3b82f6" rx="2"/>
  <rect x="180" y="180" width="30" height="40" fill="#8b5cf6" rx="2"/>
  <rect x="220" y="180" width="30" height="40" fill="#06b6d4" rx="2"/>
  <rect x="260" y="180" width="30" height="40" fill="#10b981" rx="2"/>
  
  <!-- RAID Labels -->
  <text x="155" y="235" text-anchor="middle" fill="white" font-size="10">Drive 1</text>
  <text x="195" y="235" text-anchor="middle" fill="white" font-size="10">Drive 2</text>
  <text x="235" y="235" text-anchor="middle" fill="white" font-size="10">Drive 3</text>
  <text x="275" y="235" text-anchor="middle" fill="white" font-size="10">Drive 4</text>
  
  <!-- Data Flow -->
  <path d="M110 100 L120 100" stroke="#3b82f6" stroke-width="2"/>
  <path d="M190 100 L200 100" stroke="#8b5cf6" stroke-width="2"/>
  <path d="M270 100 L280 100" stroke="#06b6d4" stroke-width="2"/>
  <path d="M350 100 L360 100" stroke="#10b981" stroke-width="2"/>
  
  <!-- Performance Metrics -->
  <rect x="50" y="260" width="300" height="30" fill="#e2e8f0" rx="4"/>
  <rect x="60" y="270" width="80" height="10" fill="#3b82f6" rx="2"/>
  <rect x="150" y="270" width="100" height="10" fill="#8b5cf6" rx="2"/>
  <rect x="260" y="270" width="80" height="10" fill="#06b6d4" rx="2"/>
  
  <!-- Labels -->
  <text x="100" y="285" fill="#64748b" font-size="8">Read Speed</text>
  <text x="200" y="285" fill="#64748b" font-size="8">Write Speed</text>
  <text x="300" y="285" fill="#64748b" font-size="8">IOPS</text>
  
  <!-- Storage Icons -->
  <circle cx="50" cy="50" r="20" fill="#f59e0b"/>
  <text x="50" y="55" text-anchor="middle" fill="white" font-size="16">💾</text>
  
  <circle cx="350" cy="50" r="20" fill="#10b981"/>
  <text x="350" y="55" text-anchor="middle" fill="white" font-size="16">⚡</text>
</svg> 