<svg width="320" height="240" viewBox="0 0 320 240" fill="none" xmlns="http://www.w3.org/2000/svg">
  <!-- Background -->
  <rect width="320" height="240" fill="url(#colocation-bg)" rx="12"/>
  
  <!-- Data Center Building -->
  <rect x="80" y="80" width="160" height="120" fill="#374151" stroke="#1F2937" stroke-width="2" rx="4"/>
  
  <!-- Building Windows -->
  <rect x="90" y="90" width="20" height="15" fill="#6B7280" rx="2"/>
  <rect x="120" y="90" width="20" height="15" fill="#6B7280" rx="2"/>
  <rect x="150" y="90" width="20" height="15" fill="#6B7280" rx="2"/>
  <rect x="180" y="90" width="20" height="15" fill="#6B7280" rx="2"/>
  <rect x="210" y="90" width="20" height="15" fill="#6B7280" rx="2"/>
  
  <rect x="90" y="115" width="20" height="15" fill="#6B7280" rx="2"/>
  <rect x="120" y="115" width="20" height="15" fill="#6B7280" rx="2"/>
  <rect x="150" y="115" width="20" height="15" fill="#6B7280" rx="2"/>
  <rect x="180" y="115" width="20" height="15" fill="#6B7280" rx="2"/>
  <rect x="210" y="115" width="20" height="15" fill="#6B7280" rx="2"/>
  
  <rect x="90" y="140" width="20" height="15" fill="#6B7280" rx="2"/>
  <rect x="120" y="140" width="20" height="15" fill="#6B7280" rx="2"/>
  <rect x="150" y="140" width="20" height="15" fill="#6B7280" rx="2"/>
  <rect x="180" y="140" width="20" height="15" fill="#6B7280" rx="2"/>
  <rect x="210" y="140" width="20" height="15" fill="#6B7280" rx="2"/>
  
  <!-- Server Racks -->
  <rect x="100" y="100" width="15" height="80" fill="#1F2937" stroke="#111827" stroke-width="1" rx="2"/>
  <rect x="125" y="100" width="15" height="80" fill="#1F2937" stroke="#111827" stroke-width="1" rx="2"/>
  <rect x="150" y="100" width="15" height="80" fill="#1F2937" stroke="#111827" stroke-width="1" rx="2"/>
  <rect x="175" y="100" width="15" height="80" fill="#1F2937" stroke="#111827" stroke-width="1" rx="2"/>
  <rect x="200" y="100" width="15" height="80" fill="#1F2937" stroke="#111827" stroke-width="1" rx="2"/>
  
  <!-- Server Units -->
  <rect x="102" y="105" width="11" height="8" fill="#6B7280" rx="1"/>
  <rect x="102" y="118" width="11" height="8" fill="#6B7280" rx="1"/>
  <rect x="102" y="131" width="11" height="8" fill="#6B7280" rx="1"/>
  <rect x="102" y="144" width="11" height="8" fill="#6B7280" rx="1"/>
  <rect x="102" y="157" width="11" height="8" fill="#6B7280" rx="1"/>
  
  <rect x="127" y="105" width="11" height="8" fill="#6B7280" rx="1"/>
  <rect x="127" y="118" width="11" height="8" fill="#6B7280" rx="1"/>
  <rect x="127" y="131" width="11" height="8" fill="#6B7280" rx="1"/>
  <rect x="127" y="144" width="11" height="8" fill="#6B7280" rx="1"/>
  <rect x="127" y="157" width="11" height="8" fill="#6B7280" rx="1"/>
  
  <rect x="152" y="105" width="11" height="8" fill="#6B7280" rx="1"/>
  <rect x="152" y="118" width="11" height="8" fill="#6B7280" rx="1"/>
  <rect x="152" y="131" width="11" height="8" fill="#6B7280" rx="1"/>
  <rect x="152" y="144" width="11" height="8" fill="#6B7280" rx="1"/>
  <rect x="152" y="157" width="11" height="8" fill="#6B7280" rx="1"/>
  
  <rect x="177" y="105" width="11" height="8" fill="#6B7280" rx="1"/>
  <rect x="177" y="118" width="11" height="8" fill="#6B7280" rx="1"/>
  <rect x="177" y="131" width="11" height="8" fill="#6B7280" rx="1"/>
  <rect x="177" y="144" width="11" height="8" fill="#6B7280" rx="1"/>
  <rect x="177" y="157" width="11" height="8" fill="#6B7280" rx="1"/>
  
  <rect x="202" y="105" width="11" height="8" fill="#6B7280" rx="1"/>
  <rect x="202" y="118" width="11" height="8" fill="#6B7280" rx="1"/>
  <rect x="202" y="131" width="11" height="8" fill="#6B7280" rx="1"/>
  <rect x="202" y="144" width="11" height="8" fill="#6B7280" rx="1"/>
  <rect x="202" y="157" width="11" height="8" fill="#6B7280" rx="1"/>
  
  <!-- Network Equipment -->
  <rect x="60" y="120" width="15" height="10" fill="#3B82F6" rx="2"/>
  <text x="67.5" y="127" text-anchor="middle" fill="white" font-family="monospace" font-size="6" font-weight="bold">SW</text>
  
  <rect x="245" y="120" width="15" height="10" fill="#3B82F6" rx="2"/>
  <text x="252.5" y="127" text-anchor="middle" fill="white" font-family="monospace" font-size="6" font-weight="bold">SW</text>
  
  <!-- Network Connections -->
  <line x1="75" y1="125" x2="100" y2="125" stroke="#3B82F6" stroke-width="2"/>
  <line x1="215" y1="125" x2="245" y2="125" stroke="#3B82F6" stroke-width="2"/>
  
  <!-- Power Units -->
  <rect x="60" y="150" width="15" height="8" fill="#10B981" rx="2"/>
  <text x="67.5" y="155" text-anchor="middle" fill="white" font-family="monospace" font-size="5" font-weight="bold">PSU</text>
  
  <rect x="245" y="150" width="15" height="8" fill="#10B981" rx="2"/>
  <text x="252.5" y="155" text-anchor="middle" fill="white" font-family="monospace" font-size="5" font-weight="bold">PSU</text>
  
  <!-- Security Camera -->
  <circle cx="160" cy="70" r="8" fill="#EF4444"/>
  <circle cx="160" cy="70" r="4" fill="#1F2937"/>
  
  <!-- Cooling Units -->
  <rect x="40" y="180" width="20" height="15" fill="#6B7280" rx="2"/>
  <text x="50" y="189" text-anchor="middle" fill="white" font-family="monospace" font-size="6" font-weight="bold">AC</text>
  
  <rect x="260" y="180" width="20" height="15" fill="#6B7280" rx="2"/>
  <text x="270" y="189" text-anchor="middle" fill="white" font-family="monospace" font-size="6" font-weight="bold">AC</text>
  
  <!-- Gradients -->
  <defs>
    <linearGradient id="colocation-bg" x1="0%" y1="0%" x2="100%" y2="100%">
      <stop offset="0%" style="stop-color:#F9FAFB;stop-opacity:1" />
      <stop offset="100%" style="stop-color:#DBEAFE;stop-opacity:1" />
    </linearGradient>
  </defs>
</svg> 